<?xml version="1.0" encoding="UTF-8"?>
<svg version="1.1" xmlns="http://www.w3.org/2000/svg" width="512" height="512">
<path d="M0 0 C1.01790619 0.00215515 2.03581238 0.0043103 3.08456421 0.00653076 C17.69363523 0.05620146 32.02575853 0.30709809 46.375 3.3125 C47.34985352 3.51117676 48.32470703 3.70985352 49.32910156 3.91455078 C97.7109774 14.03517194 141.69928269 35.9516877 177.375 70.3125 C178.3640332 71.26068604 178.3640332 71.26068604 179.37304688 72.22802734 C188.86130305 81.37247479 197.6012044 90.66984009 205.375 101.3125 C206.23306152 102.46355017 207.09113451 103.61459177 207.94921875 104.765625 C213.98736829 112.95680614 219.34595521 121.47054105 224.375 130.3125 C224.73948242 130.94430176 225.10396484 131.57610352 225.47949219 132.22705078 C247.08534998 169.97532572 256.85198095 212.74189997 256.6875 255.9375 C256.68534485 256.95540619 256.6831897 257.97331238 256.68096924 259.02206421 C256.63129854 273.63113523 256.38040191 287.96325853 253.375 302.3125 C253.07698486 303.77478027 253.07698486 303.77478027 252.77294922 305.26660156 C242.65232806 353.6484774 220.7358123 397.63678269 186.375 433.3125 C185.74287598 433.97185547 185.11075195 434.63121094 184.45947266 435.31054688 C175.31502521 444.79880305 166.01765991 453.5387044 155.375 461.3125 C154.22394983 462.17056152 153.07290823 463.02863451 151.921875 463.88671875 C143.73224019 469.92427396 135.22961724 475.30707302 126.375 480.3125 C125.66778809 480.7146875 124.96057617 481.116875 124.23193359 481.53125 C101.09654164 494.5566741 75.92537591 503.30551461 49.9375 508.625 C49.21860596 508.77235596 48.49971191 508.91971191 47.7590332 509.0715332 C33.08339502 511.86090125 18.55831162 512.66142619 3.64770508 512.62817383 C0.70811513 512.6250221 -2.2304558 512.64854926 -5.16992188 512.67382812 C-18.54306192 512.71848737 -31.43916711 511.51301542 -44.625 509.3125 C-46.33055054 509.03031616 -46.33055054 509.03031616 -48.07055664 508.74243164 C-91.33802759 500.97044532 -132.38793216 480.98345309 -165.625 452.3125 C-166.37007813 451.67828125 -167.11515625 451.0440625 -167.8828125 450.390625 C-181.38779833 438.57948485 -194.05918743 425.82889772 -204.625 411.3125 C-205.48149066 410.16255169 -206.33826433 409.01281411 -207.1953125 407.86328125 C-213.23534209 399.67315742 -218.61867614 391.16870382 -223.625 382.3125 C-224.0271875 381.60528809 -224.429375 380.89807617 -224.84375 380.16943359 C-237.8691741 357.03404164 -246.61801461 331.86287591 -251.9375 305.875 C-252.08485596 305.15610596 -252.23221191 304.43721191 -252.3840332 303.6965332 C-255.35789088 288.05024391 -255.99800362 272.57681954 -255.9375 256.6875 C-255.93534485 255.66959381 -255.9331897 254.65168762 -255.93096924 253.60293579 C-255.88129854 238.99386477 -255.63040191 224.66174147 -252.625 210.3125 C-252.42632324 209.33764648 -252.22764648 208.36279297 -252.02294922 207.35839844 C-241.90232806 158.9765226 -219.9858123 114.98821731 -185.625 79.3125 C-184.99287598 78.65314453 -184.36075195 77.99378906 -183.70947266 77.31445312 C-174.56502521 67.82619695 -165.26765991 59.0862956 -154.625 51.3125 C-153.47394983 50.45443848 -152.32290823 49.59636549 -151.171875 48.73828125 C-142.98224019 42.70072604 -134.47961724 37.31792698 -125.625 32.3125 C-124.91778809 31.9103125 -124.21057617 31.508125 -123.48193359 31.09375 C-100.34654164 18.0683259 -75.17537591 9.31948539 -49.1875 4 C-48.46860596 3.85264404 -47.74971191 3.70528809 -47.0090332 3.5534668 C-31.36274391 0.57960912 -15.88931954 -0.06050362 0 0 Z " fill="#D81159" transform="translate(255.625,-0.3125)"/>
<path d="M0 0 C4.67840642 4.01006264 9.13269053 7.98974169 13.46043396 12.34017944 C14.07078068 12.94967174 14.68112741 13.55916404 15.30996948 14.1871258 C17.33589638 16.21141755 19.35824993 18.23924038 21.38061523 20.26708984 C22.83954237 21.7262993 24.29869023 23.18528809 25.75804138 24.64407349 C29.70602391 28.5917698 33.65092152 32.54253574 37.59526324 36.4938693 C41.72277112 40.62763998 45.85312215 44.75856787 49.98316956 48.88980103 C57.79770641 56.70744257 65.60969121 64.52762914 73.42075735 72.34873831 C82.31599078 81.25515965 91.21407311 90.15873241 100.11239326 99.06206965 C118.41142895 117.37155021 136.70689259 135.6845966 155 154 C153.07389707 158.31151174 150.09011415 160.70045675 146.4375 163.5625 C145.77274658 164.0869873 145.10799316 164.61147461 144.4230957 165.15185547 C125.69815778 179.68053939 104.76980586 190.79289117 83 200 C81.82308594 200.50144531 80.64617187 201.00289062 79.43359375 201.51953125 C72.59902482 204.24061795 72.59902482 204.24061795 70.09851456 203.23620605 C67.82605216 201.89752972 66.1952886 200.44697169 64.33001709 198.58398438 C63.61772949 197.87733643 62.90544189 197.17068848 62.17156982 196.44262695 C61.40048889 195.66749756 60.62940796 194.89236816 59.83496094 194.09375 C58.60513489 192.86918091 58.60513489 192.86918091 57.35046387 191.61987305 C54.64004485 188.9182617 51.93701255 186.20939416 49.234375 183.5 C47.35708341 181.62405507 45.4794985 179.74840744 43.60162354 177.87304688 C39.66733353 173.94239325 35.73727487 170.00754586 31.80957031 166.0703125 C27.2644156 161.51425874 22.71208016 156.9654752 18.15597701 152.42037201 C14.24566474 148.51912394 10.33924874 144.6140066 6.43608689 140.70560455 C4.10418809 138.3705832 1.77056193 136.0373407 -0.56580353 133.70678711 C-3.16623929 131.11140274 -5.76022381 128.50974179 -8.35253906 125.90625 C-9.13171692 125.13112061 -9.91089478 124.35599121 -10.71368408 123.55737305 C-11.41469238 122.8507251 -12.11570068 122.14407715 -12.83795166 121.41601562 C-13.45220127 120.80101196 -14.06645088 120.1860083 -14.69931412 119.55236816 C-16 118 -16 118 -16 116 C-15.09121094 115.94005859 -15.09121094 115.94005859 -14.1640625 115.87890625 C-5.84572481 114.8423134 -1.8005225 110.65476438 4 105 C4.65190308 104.36490509 5.30380615 103.72981018 5.97546387 103.07546997 C10.670365 98.48504628 15.32775927 93.85800779 19.97045898 89.21484375 C22.45081316 86.7366987 24.9390931 84.26669442 27.42773438 81.796875 C29.01350919 80.21403078 30.59881275 78.63071425 32.18359375 77.046875 C32.9241954 76.31345886 33.66479706 75.58004272 34.42784119 74.82440186 C41.28803761 68.07017695 41.28803761 68.07017695 43.5 59 C43.39431559 55.06032011 43.15140214 54.19522907 40.625 50.9375 C36.48607453 47.88257882 34.17560656 47.65495956 29 48 C24.38306923 49.91820684 21.32861517 52.32251481 17.85546875 55.88671875 C16.93185547 56.82451172 16.00824219 57.76230469 15.05664062 58.72851562 C14.09985405 59.71444956 13.14347856 60.70078258 12.1875 61.6875 C10.28866536 63.63239376 8.3850013 65.572388 6.48046875 67.51171875 C5.64410889 68.37240967 4.80774902 69.23310059 3.94604492 70.11987305 C2 72 2 72 1 72 C0.505 36.36 0.505 36.36 0 0 Z " fill="#A8004C" transform="translate(268,295)"/>
<path d="M0 0 C5.38104651 4.49096082 10.37957831 9.24209175 15.32202148 14.20849609 C16.12283646 15.00916504 16.92365143 15.80983398 17.74873352 16.63476562 C20.37523304 19.26195761 22.99818016 21.89266583 25.62109375 24.5234375 C27.44933061 26.3535409 29.27778947 28.18342255 31.10646057 30.01309204 C35.4146616 34.32471128 39.72063013 38.63854825 44.02550608 42.95348704 C48.93047541 47.86967046 53.83831671 52.78298256 58.74639022 57.69606662 C68.83410455 67.79420687 78.91824333 77.89591192 89 88 C88.52239676 89.60879127 88.04347636 91.21719156 87.56399536 92.82542419 C87.297437 93.72114356 87.03087864 94.61686293 86.75624275 95.5397253 C85.97574105 98.07892133 85.08905562 100.52596728 84.0546875 102.97265625 C83.70510986 103.80023438 83.35553223 104.6278125 82.99536133 105.48046875 C73.6349442 127.05287485 62.14972038 146.57294524 47.875 165.3125 C47.43816895 165.89926514 47.00133789 166.48603027 46.55126953 167.09057617 C45.3046875 168.67578125 45.3046875 168.67578125 43 171 C38.44018237 171 37.65136052 170.12221105 34.53153443 167.05252177 C33.95565261 166.46567069 33.37977078 165.87881962 32.78643799 165.27418518 C31.85638683 164.35031892 31.85638683 164.35031892 30.90754676 163.40778869 C28.82358469 161.33278685 26.75427753 159.24375457 24.68457031 157.15454102 C23.1971661 155.66764534 21.70888908 154.18162232 20.21980286 152.69641113 C16.17180108 148.65384194 12.13635929 144.59894059 8.10313129 140.54163861 C3.88856472 136.30583056 -0.33689322 132.08091518 -4.56109619 127.85472107 C-11.65268472 120.75667906 -18.73682122 113.65127104 -25.81591797 106.54077148 C-34.91613707 97.40023845 -44.02779752 88.27120282 -53.14338303 79.14599705 C-60.96419195 71.31690021 -68.78051777 63.48333227 -76.59571171 55.64863086 C-79.11605299 53.12221216 -81.63686437 50.5962631 -84.1576767 48.07031441 C-88.10988432 44.109351 -92.0593146 40.14563835 -96.00655556 36.17972565 C-97.46021938 34.7199182 -98.9147379 33.26096132 -100.3701458 31.80289268 C-102.34723508 29.82184784 -104.3212236 27.83776678 -106.29437256 25.85279846 C-106.87917727 25.26817811 -107.46398199 24.68355776 -108.06650805 24.08122164 C-112 20.11423586 -112 20.11423586 -112 19 C-89.23 19 -66.46 19 -43 19 C-49.72974753 26.85137212 -49.72974753 26.85137212 -53.015625 30.04296875 C-53.70914063 30.72423828 -54.40265625 31.40550781 -55.1171875 32.10742188 C-56.55292923 33.50766449 -57.99046507 34.9060696 -59.4296875 36.30273438 C-60.11804688 36.98013672 -60.80640625 37.65753906 -61.515625 38.35546875 C-62.44810059 39.26268677 -62.44810059 39.26268677 -63.39941406 40.18823242 C-66.05854223 43.19820651 -66.94119206 45.36487428 -67.3125 49.375 C-66.97144393 53.33125036 -66.10164065 55.65294268 -64 59 C-60.83989643 61.10673571 -59.84087475 61.31888057 -56.1875 61.375 C-54.94033203 61.41753906 -54.94033203 61.41753906 -53.66796875 61.4609375 C-45.9920726 60.13479439 -40.30812158 52.61417959 -35.078125 47.37890625 C-34.12763827 46.43231256 -33.17693054 45.48594075 -32.22601318 44.53977966 C-30.24247898 42.563675 -28.26282226 40.5837821 -26.28564453 38.60131836 C-23.75662212 36.06648539 -21.21637586 33.54324015 -18.67290115 31.02291965 C-16.70994574 29.07471593 -14.75398208 27.11960801 -12.79994965 25.16245842 C-11.4139329 23.77720138 -10.02137844 22.39849558 -8.62872314 21.01991272 C-7.78734802 20.17230881 -6.9459729 19.3247049 -6.07910156 18.45141602 C-4.96707367 17.34033226 -4.96707367 17.34033226 -3.83258057 16.20680237 C-0.70592531 12.44166901 0.26926523 9.0203851 0.125 4.1875 C0.08333333 2.79166667 0.04166667 1.39583333 0 0 Z " fill="#A8004C" transform="translate(410,250)"/>
<path d="M0 0 C4.82252355 4.0233739 9.37641174 8.22803238 13.80859375 12.67578125 C14.42017838 13.28640915 15.031763 13.89703705 15.66188049 14.52616882 C16.93947039 15.80308385 18.21582103 17.08123993 19.4909668 18.3605957 C21.45312256 20.32816566 23.4206352 22.29026732 25.38867188 24.25195312 C26.63313376 25.49707483 27.87728594 26.74250616 29.12109375 27.98828125 C29.71160019 28.57676346 30.30210663 29.16524567 30.9105072 29.77156067 C35 33.88501452 35 33.88501452 35 35 C34.33613281 35.08636719 33.67226563 35.17273438 32.98828125 35.26171875 C27.14110314 36.19214563 23.7860503 37.1147738 20 42 C18.54449197 44.91101606 18.8348901 47.49317198 18.79467773 50.74462891 C18.78477814 51.43742447 18.77487854 52.13022003 18.76467896 52.8440094 C18.73304503 55.13815878 18.70829914 57.43232889 18.68359375 59.7265625 C18.66302585 61.31554712 18.64202942 62.90452624 18.62062073 64.49349976 C18.56538309 68.67903195 18.51598131 72.86461366 18.46777344 77.05023193 C18.41757074 81.3199912 18.36187826 85.58967842 18.30664062 89.859375 C18.19903837 98.23952245 18.09759801 106.6197301 18 115 C14.18782498 111.7883645 10.450101 108.58208634 6.9921875 104.984375 C5.97705078 103.94410156 5.97705078 103.94410156 4.94140625 102.8828125 C3.55220593 101.44896869 2.16684255 100.0113984 0.78515625 98.5703125 C0.11097656 97.88195312 -0.56320313 97.19359375 -1.2578125 96.484375 C-1.8573877 95.86272461 -2.45696289 95.24107422 -3.07470703 94.60058594 C-6.30728713 91.91319118 -9.29744535 91.07664233 -13.4375 90.625 C-17.71478563 91.07524059 -19.72307541 92.25652825 -23 95 C-25.61000207 98.48000276 -25.5787947 102.78794699 -26 107 C-31.78829837 102.18960893 -37.11999073 97.02564447 -42.43359375 91.69921875 C-43.31153091 90.82223831 -44.18946808 89.94525787 -45.0940094 89.04170227 C-46.9365418 87.1998471 -48.7778251 85.3567416 -50.61791992 83.51245117 C-52.50839797 81.61837191 -54.40014126 79.72569881 -56.29467773 77.83569336 C-59.03115423 75.10535829 -61.76418703 72.37162543 -64.49609375 69.63671875 C-65.34908554 68.78575119 -66.20207733 67.93478363 -67.08091736 67.05802917 C-67.85915359 66.27664078 -68.63738983 65.49525238 -69.43920898 64.69018555 C-70.12869125 63.99990768 -70.81817352 63.30962982 -71.52854919 62.59843445 C-73 61 -73 61 -73 60 C-72.33613281 59.96261719 -71.67226562 59.92523438 -70.98828125 59.88671875 C-63.96175741 59.45627147 -63.96175741 59.45627147 -58 56 C-56.03015793 52.71692988 -55.2478338 49.05202081 -55.390625 45.2109375 C-56.80273704 40.08750534 -61.30602154 36.61249364 -65 33 C-66.313851 31.68885239 -67.62625658 30.37625538 -68.9375 29.0625 C-70.99118515 27.00492115 -73.04807292 24.95168072 -75.12133789 22.91381836 C-76.06867798 21.98001343 -76.06867798 21.98001343 -77.03515625 21.02734375 C-77.6062915 20.46781006 -78.17742676 19.90827637 -78.76586914 19.33178711 C-80 18 -80 18 -80 17 C-79.13857895 16.99635437 -78.2771579 16.99270874 -77.38963318 16.98895264 C-69.25355718 16.95101487 -61.11787967 16.89409663 -52.98208523 16.81609726 C-48.79980892 16.77666404 -44.61774185 16.74445539 -40.43530273 16.72900391 C-36.39555151 16.71380964 -32.35637565 16.67931584 -28.31688118 16.63169098 C-26.77924679 16.61690556 -25.24153024 16.60896061 -23.703825 16.60811615 C-12.62162573 16.82607877 -12.62162573 16.82607877 -3 12 C-0.78747015 8.27892706 -0.50134084 4.26139717 0 0 Z " fill="#A8004C" transform="translate(225,252)"/>
<path d="M0 0 C3.81549117 3.21728928 7.56226276 6.43209779 11.04296875 10.015625 C11.72423828 10.70914063 12.40550781 11.40265625 13.10742188 12.1171875 C14.50766449 13.55292923 15.9060696 14.99046507 17.30273438 16.4296875 C17.98013672 17.11804688 18.65753906 17.80640625 19.35546875 18.515625 C20.26268677 19.44810059 20.26268677 19.44810059 21.18823242 20.39941406 C24.19820651 23.05854223 26.36487428 23.94119206 30.375 24.3125 C34.33125036 23.97144393 36.65294268 23.10164065 40 21 C42.18994248 17.71508627 42.35277339 16.16904361 42.625 12.3125 C42.69976562 11.31863281 42.77453125 10.32476562 42.8515625 9.30078125 C42.90054688 8.54152344 42.94953125 7.78226563 43 7 C48.86970122 11.87336087 54.26604835 17.12056808 59.65234375 22.51953125 C61.00254356 23.86829597 61.00254356 23.86829597 62.38002014 25.24430847 C64.26964342 27.13325439 66.15823816 29.02316308 68.04516602 30.91479492 C70.46847733 33.34385209 72.89631743 35.76832574 75.32547665 38.19153309 C77.64518724 40.50677961 79.961105 42.82581218 82.27734375 45.14453125 C83.15220932 46.01737259 84.02707489 46.89021393 84.92845154 47.789505 C85.72670853 48.59091415 86.52496552 49.3923233 87.34741211 50.21801758 C88.05465927 50.92606033 88.76190643 51.63410309 89.49058533 52.36360168 C91 54 91 54 91 55 C90.26394531 55.01417969 89.52789062 55.02835938 88.76953125 55.04296875 C82.34464777 55.30116574 82.34464777 55.30116574 76.875 58.4375 C74.11177436 62.21390838 73.32975939 64.8075704 73.42578125 69.4609375 C74.50365651 74.22705257 77.98314692 77.14733131 81.40625 80.45751953 C83.96967674 82.93848309 86.47876713 85.47361063 88.99780273 87.99951172 C90.366791 89.36736685 91.74126502 90.72975507 93.12133789 92.08642578 C93.75289795 92.70888184 94.38445801 93.33133789 95.03515625 93.97265625 C95.6062915 94.53218994 96.17742676 95.09172363 96.76586914 95.66821289 C98 97 98 97 98 98 C96.70786842 98.00546844 96.70786842 98.00546844 95.38963318 98.01104736 C87.25355718 98.04898513 79.11787967 98.10590337 70.98208523 98.18390274 C66.79980892 98.22333596 62.61774185 98.25554461 58.43530273 98.27099609 C54.39555151 98.28619036 50.35637565 98.32068416 46.31688118 98.36830902 C44.77924679 98.38309444 43.24153024 98.39103939 41.703825 98.39188385 C30.62353335 98.17756868 30.62353335 98.17756868 21 103 C19.37004376 105.27124349 19.37004376 105.27124349 18.5625 107.75 C18.04166667 109.16666667 17.52083333 110.58333333 17 112 C10.52756334 106.71120198 4.68353602 100.83581643 -1.20922852 94.92114258 C-2.95409718 93.17085124 -4.70432783 91.42604674 -6.45507812 89.68164062 C-7.56282133 88.57323772 -8.6702549 87.46452524 -9.77734375 86.35546875 C-10.30222885 85.83260788 -10.82711395 85.30974701 -11.36790466 84.77104187 C-15 81.114991 -15 81.114991 -15 80 C-14.31292969 79.82984375 -13.62585938 79.6596875 -12.91796875 79.484375 C-12.01691406 79.24203125 -11.11585938 78.9996875 -10.1875 78.75 C-9.29417969 78.51796875 -8.40085937 78.2859375 -7.48046875 78.046875 C-4.57143765 76.81912644 -3.60017169 75.68546164 -2 73 C-0.85534162 69.56602485 -0.84020593 66.85638646 -0.79467773 63.23364258 C-0.77982834 62.20886055 -0.77982834 62.20886055 -0.76467896 61.16337585 C-0.73311321 58.90712947 -0.7083261 56.65086203 -0.68359375 54.39453125 C-0.66301996 52.82939611 -0.64202338 51.26426648 -0.62062073 49.69914246 C-0.56544391 45.58102884 -0.51601529 41.46286544 -0.46777344 37.34466553 C-0.41752635 33.14184136 -0.36185703 28.93908942 -0.30664062 24.73632812 C-0.19911274 16.4909465 -0.09765587 8.24550442 0 0 Z " fill="#A8004C" transform="translate(269,145)"/>
<path d="M0 0 C0.80824219 -0.0515625 1.61648438 -0.103125 2.44921875 -0.15625 C10.65850865 1.72527893 17.24174326 10.13627223 22.95703125 15.87890625 C23.84863449 16.76859604 24.74023773 17.65828583 25.65885925 18.57493591 C27.5311844 20.44590672 29.40138859 22.31873276 31.26831055 24.19506836 C33.65313156 26.59133226 36.04688943 28.97843587 38.44339466 31.36300755 C40.74447917 33.65510939 43.03791158 35.95483666 45.33203125 38.25390625 C46.18827591 39.10610245 47.04452057 39.95829865 47.92671204 40.83631897 C48.72151474 41.63742599 49.51631744 42.43853302 50.33520508 43.26391602 C51.0327742 43.96307632 51.73034332 44.66223663 52.4490509 45.38258362 C55.44452909 48.78631201 57.19169242 51.39259715 57.6875 55.9375 C57.04036495 62.08528301 54.19636789 65.9919068 49.90454102 70.28027344 C48.5728463 71.62131134 48.5728463 71.62131134 47.21424866 72.98944092 C46.24860763 73.94639493 45.28265256 74.90303214 44.31640625 75.859375 C43.32085395 76.85440802 42.32582119 77.8499611 41.33128357 78.8460083 C39.25215143 80.92505103 37.16797738 82.9988567 35.07983398 85.06884766 C32.40703091 87.71892038 29.74549007 90.37997173 27.0874033 93.04479599 C25.03657772 95.09896592 22.98079088 97.14811021 20.92338371 99.19568634 C19.94008643 100.17514274 18.95812403 101.15594119 17.97754097 102.13811493 C16.60657244 103.50945523 15.22836226 104.87354423 13.84985352 106.23730469 C13.06836441 107.0141864 12.28687531 107.79106812 11.48170471 108.5914917 C7.05691135 112.48451057 3.47989709 112.94359125 -2.27734375 112.81640625 C-5.76885903 112.35803877 -7.40582882 111.1381823 -9.6875 108.5 C-11.93809535 104.53466534 -12.16154865 101.00346218 -11.6875 96.5 C-9.20911836 92.31676671 -6.37303522 88.94597708 -2.921875 85.5390625 C-1.58769531 84.21455078 -1.58769531 84.21455078 -0.2265625 82.86328125 C0.69382812 81.95964844 1.61421875 81.05601562 2.5625 80.125 C3.49835938 79.19816406 4.43421875 78.27132812 5.3984375 77.31640625 C7.69865139 75.03966393 10.00341445 72.76773829 12.3125 70.5 C11.44885834 70.49635437 10.58521667 70.49270874 9.69540405 70.48895264 C1.54430028 70.45103835 -6.60640477 70.39414667 -14.75722694 70.31609726 C-18.94737914 70.27663892 -23.13732171 70.24444255 -27.32763672 70.22900391 C-31.3738676 70.21382622 -35.41952212 70.17936172 -39.46549606 70.13169098 C-41.00674801 70.1168885 -42.54808226 70.10895963 -44.08940506 70.10811615 C-46.25374575 70.10574114 -48.41650042 70.07862307 -50.58056641 70.04589844 C-51.81078522 70.03701599 -53.04100403 70.02813354 -54.3085022 70.01898193 C-58.35124834 69.39805457 -60.51619991 68.04090694 -63.6875 65.5 C-66.597872 61.134442 -67.3381249 57.70499921 -66.6875 52.5 C-64.19799232 47.52098465 -61.77101133 45.59388873 -56.6875 43.5 C-53.34646606 43.10127258 -53.34646606 43.10127258 -49.67236328 43.06762695 C-48.99849075 43.0574353 -48.32461823 43.04724365 -47.63032532 43.03674316 C-45.42273482 43.00676406 -43.21557927 42.99737091 -41.0078125 42.98828125 C-39.46937637 42.97142327 -37.93095393 42.95327153 -36.39254761 42.93388367 C-32.35831986 42.88649863 -28.32414759 42.85661523 -24.28973389 42.83044434 C-20.16700283 42.80058051 -16.04446271 42.75407028 -11.921875 42.70898438 C-3.84384407 42.62308221 4.23420447 42.55567909 12.3125 42.5 C11.32854248 41.52389771 11.32854248 41.52389771 10.32470703 40.52807617 C7.88876733 38.10919367 5.45510652 35.68806419 3.02294922 33.26538086 C1.97046713 32.21792294 0.91708865 31.1713649 -0.13720703 30.12573242 C-1.6537435 28.6213454 -3.1670114 27.11373614 -4.6796875 25.60546875 C-5.59089355 24.69949951 -6.50209961 23.79353027 -7.44091797 22.86010742 C-11.37500683 18.72721924 -12.12815219 16.28830323 -12.01171875 10.7890625 C-11.51544178 7.28522751 -9.9510642 5.15160378 -7.6875 2.5 C-4.59815509 0.44043673 -3.56941334 0.13448339 0 0 Z " fill="#FDFAFB" transform="translate(353.6875,199.5)"/>
<path d="M0 0 C3.6145983 2.49005661 5.42557253 4.82949331 6.8125 8.9375 C7.42686413 14.19292099 7.41893081 19.43216966 7.421875 24.71484375 C7.43687043 26.25185375 7.45360044 27.78884772 7.47198486 29.32582092 C7.51551826 33.35186539 7.53562607 37.37769254 7.55072021 41.40393066 C7.57034217 45.52006811 7.6123063 49.63597259 7.65234375 53.75195312 C7.72749384 61.81374088 7.77787691 69.87543677 7.8125 77.9375 C8.77289185 76.95354248 8.77289185 76.95354248 9.75268555 75.94970703 C12.14146526 73.50966967 14.53695404 71.07663234 16.93725586 68.64794922 C17.9728873 67.59727111 19.00580525 66.54391092 20.03588867 65.48779297 C21.52069768 63.96641937 23.01513661 62.45509549 24.51171875 60.9453125 C25.40721436 60.03410645 26.30270996 59.12290039 27.2253418 58.18408203 C30.81713737 55.06511413 33.56030005 54.07410363 38.25 53.5625 C42.50449062 54.01034112 44.5208785 55.2582732 47.8125 57.9375 C49.87206327 61.02684491 50.17801661 62.05558666 50.3125 65.625 C50.3640625 66.43324219 50.415625 67.24148438 50.46875 68.07421875 C48.5906793 76.26842006 40.19270534 82.86423487 34.46875 88.58203125 C33.58143188 89.47363449 32.69411377 90.36523773 31.77990723 91.28385925 C29.43849598 93.63243908 27.09205516 95.97585904 24.74420166 98.31799316 C22.83387091 100.22873111 20.93287573 102.14862967 19.03162384 104.06839466 C16.74678354 106.3715548 14.45090978 108.66366063 12.15625 110.95703125 C11.30921509 111.81327591 10.46218018 112.66952057 9.58947754 113.55171204 C4.62090335 118.48165078 0.55507903 122.31373683 -6.5625 123.5 C-15.35836413 122.13512453 -22.07448468 113.34407762 -28.0859375 107.3046875 C-29.00210846 106.39042999 -29.91827942 105.47617249 -30.86221313 104.53421021 C-32.7865657 102.61278403 -34.70731024 100.68784359 -36.62548828 98.76025391 C-39.07990144 96.294383 -41.54327418 93.83768841 -44.00937462 91.3835125 C-46.37309755 89.02875542 -48.72917103 86.66640719 -51.0859375 84.3046875 C-51.96921722 83.42545624 -52.85249695 82.54622498 -53.76254272 81.64035034 C-54.57744171 80.81914703 -55.3923407 79.99794373 -56.23193359 79.15185547 C-56.94948822 78.43270966 -57.66704285 77.71356384 -58.40634155 76.97262573 C-62.21579835 72.61999581 -62.62411115 68.98814083 -62.5078125 63.34765625 C-62.04858154 59.89222329 -60.76332886 58.22712565 -58.1875 55.9375 C-54.70100569 53.41279723 -51.38982375 53.57523071 -47.1875 53.9375 C-42.57365076 55.86724535 -39.49655212 58.27087284 -36.0078125 61.82421875 C-34.615625 63.2309082 -34.615625 63.2309082 -33.1953125 64.66601562 C-32.23420729 65.65218033 -31.27327185 66.63851052 -30.3125 67.625 C-29.32882718 68.62373895 -28.3444583 69.62179284 -27.359375 70.61914062 C-24.96182409 73.05194964 -22.57157154 75.49149215 -20.1875 77.9375 C-20.18385437 77.07385834 -20.18020874 76.21021667 -20.17645264 75.32040405 C-20.13853835 67.16930028 -20.08164667 59.01859523 -20.00359726 50.86777306 C-19.96413892 46.67762086 -19.93194255 42.48767829 -19.91650391 38.29736328 C-19.90132622 34.2511324 -19.86686172 30.20547788 -19.81919098 26.15950394 C-19.8043885 24.61825199 -19.79645963 23.07691774 -19.79561615 21.53559494 C-19.79324114 19.37125425 -19.76612307 17.20849958 -19.73339844 15.04443359 C-19.72007477 13.19910538 -19.72007477 13.19910538 -19.70648193 11.3164978 C-18.94559418 6.36249479 -16.7362365 3.1932323 -12.875 0.0625 C-8.28752325 -1.8578391 -4.66625847 -1.55541949 0 0 Z " fill="#FDFAFB" transform="translate(262.1875,288.0625)"/>
<path d="M0 0 C3.53536291 2.02020738 5.76937948 4.08438925 7 8 C7.49490667 13.34499207 6.65755909 16.39114223 4 21 C1.73168945 23.60888672 1.73168945 23.60888672 -0.88671875 26.1796875 C-1.82451172 27.1078125 -2.76230469 28.0359375 -3.72851562 28.9921875 C-4.71468033 29.95329271 -5.70101052 30.91422815 -6.6875 31.875 C-7.68623895 32.85867282 -8.68429284 33.8430417 -9.68164062 34.828125 C-12.11444964 37.22567591 -14.55399215 39.61592846 -17 42 C-16.14888641 42.00586624 -15.29777283 42.01173248 -14.42086792 42.01777649 C-6.3875383 42.07575602 1.64551485 42.14786286 9.67857552 42.23571491 C13.80815797 42.28038233 17.93764261 42.31964627 22.06738281 42.34643555 C26.05518496 42.372505 30.04260993 42.4129327 34.03017807 42.46318626 C35.54910453 42.47983046 37.0680962 42.49135997 38.58710098 42.49761391 C40.72008763 42.50728208 42.85211468 42.53537126 44.98486328 42.56762695 C46.80354416 42.58428154 46.80354416 42.58428154 48.65896606 42.60127258 C53.80273669 43.21514314 56.99877895 44.84069142 60.375 48.75 C62.29553488 52.59106976 62.53077531 54.75379753 62 59 C60.52022161 63.43933516 58.60583901 65.92321447 54.46334839 68.16833496 C48.68037824 70.12075636 42.27241223 69.60600329 36.22265625 69.609375 C34.68564625 69.62437043 33.14865228 69.64110044 31.61167908 69.65948486 C27.58563461 69.70301826 23.55980746 69.72312607 19.53356934 69.73822021 C15.41743189 69.75784217 11.30152741 69.7998063 7.18554688 69.83984375 C-0.87624088 69.91499384 -8.93793677 69.96537691 -17 70 C-16.34402832 70.65073486 -15.68805664 71.30146973 -15.01220703 71.97192383 C-12.57626733 74.39080633 -10.14260652 76.81193581 -7.71044922 79.23461914 C-6.65796713 80.28207706 -5.60458865 81.3286351 -4.55029297 82.37426758 C-3.0337565 83.8786546 -1.5204886 85.38626386 -0.0078125 86.89453125 C0.90339355 87.80050049 1.81459961 88.70646973 2.75341797 89.63989258 C5.80321773 92.84380632 6.9451243 94.33051646 7.3125 98.8125 C7.19393066 102.84385771 6.28671767 105.60934966 4 109 C0.49266095 112.09471093 -3.00998672 112.68203419 -7.56745911 112.44543457 C-15.47473645 110.99749398 -22.22898731 102.07762733 -27.64453125 96.65625 C-28.53613449 95.76893188 -29.42773773 94.88161377 -30.34635925 93.96740723 C-32.69493908 91.62599598 -35.03835904 89.27955516 -37.38049316 86.93170166 C-39.29123111 85.02137091 -41.21112967 83.12037573 -43.13089466 81.21912384 C-45.4340548 78.93428354 -47.72616063 76.63840978 -50.01953125 74.34375 C-50.87577591 73.49671509 -51.73202057 72.64968018 -52.61421204 71.77697754 C-57.56697578 66.78539947 -61.53369933 62.73040534 -62.4375 55.5 C-61.39180619 47.13444955 -53.77888616 41.50457448 -48.08984375 35.859375 C-47.11589132 34.88661652 -46.14231029 33.91348605 -45.16908264 32.94000244 C-43.13720576 30.90968295 -41.10203455 28.88274686 -39.06420898 26.85839844 C-36.45421644 24.26545133 -33.85091174 21.66591346 -31.24980831 19.06405258 C-29.24352709 17.05804331 -27.23465028 15.05465077 -25.22488594 13.05213165 C-24.26383503 12.09425795 -23.3033842 11.13578177 -22.34354973 10.17668915 C-21.00359708 8.83890689 -19.65996067 7.50481744 -18.31616211 6.17089844 C-17.55323349 5.41178162 -16.79030487 4.65266479 -16.0042572 3.87054443 C-11.00281097 -0.79723343 -6.57020992 -0.78880998 0 0 Z " fill="#FDFAFB" transform="translate(163,200)"/>
<path d="M0 0 C4.38309721 1.86925532 7.43089677 4.05879814 10.78027344 7.42382812 C12.12131134 8.76036438 12.12131134 8.76036438 13.48944092 10.12390137 C14.44632082 11.09278534 15.40295984 12.06190726 16.359375 13.03125 C17.35433395 14.02927055 18.34988824 15.02669791 19.3460083 16.02355957 C21.42490324 18.10704134 23.4988107 20.19531537 25.56884766 22.28759766 C28.22061425 24.96771885 30.88104853 27.63901951 33.54479599 30.30722809 C35.59733425 32.36392391 37.64702634 34.42343515 39.69568634 36.48399353 C40.6760275 37.4700246 41.65683363 38.45559362 42.63811493 39.44068909 C44.00712857 40.81658433 45.37230542 42.19629396 46.73730469 43.57617188 C47.5141864 44.35988159 48.29106812 45.14359131 49.0914917 45.9510498 C53.25592634 50.42193378 53.43300035 53.44791566 53.31640625 59.33203125 C52.88401837 62.97796857 51.80118648 64.65305998 49 67 C45.03466534 69.25059535 41.50346218 69.47404865 37 69 C32.81676671 66.52161836 29.44597708 63.68553522 26.0390625 60.234375 C25.15605469 59.34492188 24.27304687 58.45546875 23.36328125 57.5390625 C22.45964844 56.61867187 21.55601562 55.69828125 20.625 54.75 C19.69816406 53.81414062 18.77132812 52.87828125 17.81640625 51.9140625 C15.53966393 49.61384861 13.26773829 47.30908555 11 45 C10.99120064 46.27667038 10.99120064 46.27667038 10.98222351 47.57913208 C10.92424398 55.6124617 10.85213714 63.64551485 10.76428509 71.67857552 C10.71961767 75.80815797 10.68035373 79.93764261 10.65356445 84.06738281 C10.627495 88.05518496 10.5870673 92.04260993 10.53681374 96.03017807 C10.52016954 97.54910453 10.50864003 99.0680962 10.50238609 100.58710098 C10.49271792 102.72008763 10.46462874 104.85211468 10.43237305 106.98486328 C10.42126999 108.1973172 10.41016693 109.40977112 10.39872742 110.65896606 C9.85119933 115.24683694 8.44803505 118.68771823 5 121.8125 C0.98532359 124.19621412 -2.40879525 124.38908515 -7 124 C-10.99575415 121.88903554 -13.42714721 120.24772229 -15 116 C-15.2784729 112.7855835 -15.2784729 112.7855835 -15.31884766 108.93652344 C-15.32889328 108.23368225 -15.3389389 107.53084106 -15.34928894 106.80670166 C-15.38010119 104.49093418 -15.39715036 102.17528221 -15.4140625 99.859375 C-15.43277575 98.25082405 -15.45234929 96.6422829 -15.4727478 95.03375244 C-15.52405851 90.8055194 -15.56368985 86.57725454 -15.60089111 82.34887695 C-15.64093744 78.03198379 -15.69202691 73.71522289 -15.7421875 69.3984375 C-15.83893422 60.93238204 -15.92334294 52.46626108 -16 44 C-16.6705542 44.68626465 -17.3411084 45.3725293 -18.03198242 46.07958984 C-20.53092782 48.6329925 -23.03991747 51.17632512 -25.55200195 53.71679688 C-26.63613297 54.81597853 -27.71755168 55.91784243 -28.79614258 57.02246094 C-30.35045744 58.61332262 -31.91439575 60.19415973 -33.48046875 61.7734375 C-33.95775925 62.26621185 -34.43504974 62.75898621 -34.92680359 63.26669312 C-38.6489831 66.99070575 -41.73510125 68.71086399 -46.9375 69.375 C-51.82725065 68.77625502 -54.76569144 66.48117027 -57.875 62.75 C-59.34453576 59.15780146 -59.86716081 55.77590496 -59 52 C-55.48223043 45.80665911 -50.39458004 41.10649893 -45.37890625 36.11328125 C-44.43223884 35.16526432 -43.4858683 34.21695086 -42.53977966 33.26835632 C-40.56352401 31.28916436 -38.5837279 29.31360364 -36.60131836 27.34057617 C-34.06825336 24.81892046 -31.54429559 22.2883696 -29.02291965 19.75503254 C-27.07308996 17.79795717 -25.11849877 15.84569314 -23.16245842 13.89482689 C-21.77891344 12.51325281 -20.39937415 11.12767105 -19.01991272 9.74201965 C-18.17230881 8.90072006 -17.3247049 8.05942047 -16.45141602 7.19262695 C-15.71069351 6.45349564 -14.96997101 5.71436432 -14.20680237 4.95283508 C-9.54512593 0.82764226 -6.28569732 -0.66165235 0 0 Z " fill="#FDFBFC" transform="translate(259,101)"/>
<path d="M0 0 C4.89453382 4.10825392 9.51776717 8.36969512 14.02734375 12.89453125 C14.66112442 13.52735519 15.29490509 14.16017914 15.94789124 14.81217957 C17.27255971 16.1361729 18.59598778 17.46140836 19.91821289 18.7878418 C21.95279758 20.82783827 23.99273772 22.86237175 26.03320312 24.89648438 C27.32323791 26.187179 28.61296297 27.47818329 29.90234375 28.76953125 C30.51472397 29.37988724 31.12710419 29.99024323 31.75804138 30.61909485 C36 34.88501609 36 34.88501609 36 36 C15.87 36 -4.26 36 -25 36 C-18.278798 28.15859766 -18.278798 28.15859766 -14.984375 24.9921875 C-14.29085937 24.31542969 -13.59734375 23.63867188 -12.8828125 22.94140625 C-11.44896869 21.55220593 -10.0113984 20.16684255 -8.5703125 18.78515625 C-7.88195312 18.11097656 -7.19359375 17.43679687 -6.484375 16.7421875 C-5.86272461 16.1426123 -5.24107422 15.54303711 -4.60058594 14.92529297 C-1.8143196 11.57378347 -0.80962772 7.96133925 -0.375 3.6875 C-0.25125 2.470625 -0.1275 1.25375 0 0 Z " fill="#A8004C" transform="translate(170,207)"/>
<path d="M0 0 C0 20.13 0 40.26 0 61 C-7.87700649 54.24828015 -7.87700649 54.24828015 -10.45678711 51.67260742 C-11.0368602 51.09568649 -11.61693329 50.51876556 -12.21458435 49.92436218 C-12.81279495 49.32412735 -13.41100555 48.72389252 -14.02734375 48.10546875 C-14.97801476 47.15623283 -14.97801476 47.15623283 -15.94789124 46.18782043 C-17.27255971 44.8638271 -18.59598778 43.53859164 -19.91821289 42.2121582 C-21.95279758 40.17216173 -23.99273772 38.13762825 -26.03320312 36.10351562 C-27.32323791 34.812821 -28.61296297 33.52181671 -29.90234375 32.23046875 C-30.51472397 31.62011276 -31.12710419 31.00975677 -31.75804138 30.38090515 C-36 26.11498391 -36 26.11498391 -36 25 C-35.29875 24.93683594 -34.5975 24.87367188 -33.875 24.80859375 C-32.92625 24.68613281 -31.9775 24.56367188 -31 24.4375 C-30.071875 24.33308594 -29.14375 24.22867188 -28.1875 24.12109375 C-20.29196384 21.34410983 -14.31200116 13.41916801 -8.5625 7.5625 C-7.14941047 6.12406358 -5.73417027 4.68773558 -4.31640625 3.25390625 C-3.70224854 2.62814697 -3.08809082 2.0023877 -2.45532227 1.35766602 C-1 0 -1 0 0 0 Z " fill="#A8014C" transform="translate(243,145)"/>
</svg>
